<svg width="84" height="120" viewBox="0 0 84 120" fill="none" xmlns="http://www.w3.org/2000/svg">
<path d="M61.2599 44.905H38.3199V0H61.2599C73.6399 0 83.7099 10.07 83.7099 22.45C83.7099 34.83 73.6399 44.905 61.2599 44.905V44.905ZM45.6749 37.55H61.2599C69.5849 37.55 76.3549 30.775 76.3549 22.455C76.3549 14.135 69.5799 7.36 61.2599 7.36H45.6749V37.55V37.55ZM45.6749 44.905H22.7399C10.3599 44.905 0.289912 34.835 0.289912 22.455C0.289912 10.075 10.3599 0 22.7399 0H45.6799V44.905H45.6749ZM22.7399 7.355C14.4149 7.355 7.64491 14.13 7.64491 22.45C7.64491 30.77 14.4149 37.55 22.7399 37.55H38.3249V7.355H22.7399ZM45.6749 82.45H22.7399C10.3599 82.45 0.289912 72.38 0.289912 60C0.289912 47.62 10.3599 37.55 22.7399 37.55H45.6799V82.45H45.6749ZM22.7399 44.905C14.4149 44.905 7.64491 51.68 7.64491 60C7.64491 68.32 14.4199 75.095 22.7399 75.095H38.3249V44.905H22.7399ZM22.8599 120C10.4149 120 0.284912 109.93 0.284912 97.55C0.284912 85.17 10.3549 75.1 22.7349 75.1H45.6749V97.305C45.6749 109.82 35.4399 120 22.8599 120V120ZM22.7399 82.45C18.7381 82.4553 14.9017 84.0474 12.072 86.8771C9.24226 89.7068 7.6502 93.5432 7.64491 97.545C7.64491 105.87 14.4699 112.64 22.8649 112.64C31.3899 112.64 38.3299 105.76 38.3299 97.3V82.45H22.7399V82.45ZM61.2599 82.45H60.7699C48.3899 82.45 38.3199 72.38 38.3199 60C38.3199 47.62 48.3899 37.55 60.7699 37.55H61.2599C73.6399 37.55 83.7099 47.62 83.7099 60C83.7099 72.38 73.6399 82.45 61.2599 82.45V82.45ZM60.7749 44.905C52.4499 44.905 45.6799 51.68 45.6799 60C45.6799 68.32 52.4549 75.095 60.7749 75.095H61.2649C69.5899 75.095 76.3599 68.32 76.3599 60C76.3599 51.68 69.5849 44.905 61.2649 44.905H60.7749V44.905Z" fill="#FBFEF9"/>
</svg>
