<svg width="120" height="120" viewBox="0 0 120 120" fill="none" xmlns="http://www.w3.org/2000/svg">
<path d="M117.73 54.65L65.335 2.26C62.315 -0.755001 57.425 -0.755001 54.395 2.26L43.54 13.135L57.34 26.935C60.565 25.86 64.235 26.585 66.785 29.14C69.365 31.715 70.075 35.43 68.975 38.64L82.265 51.94C85.49 50.825 89.2 51.55 91.765 54.115C95.37 57.715 95.37 63.535 91.765 67.135C88.17 70.73 82.36 70.73 78.765 67.135C76.07 64.43 75.395 60.45 76.745 57.155L64.3 44.775V77.4C65.18 77.83 66.01 78.415 66.74 79.14C70.305 82.745 70.305 88.555 66.74 92.14C63.145 95.745 57.295 95.745 53.695 92.14C50.1 88.545 50.1 82.745 53.695 79.15C54.605 78.25 55.63 77.57 56.72 77.12V44.175C55.635 43.72 54.6 43.065 53.72 42.17C50.995 39.445 50.34 35.46 51.74 32.125L38.18 18.5L2.25 54.405C-0.75 57.43 -0.75 62.325 2.25 65.35L54.65 117.735C57.67 120.755 62.56 120.755 65.58 117.735L117.73 65.585C120.755 62.57 120.755 57.675 117.73 54.65" fill="#FBFEF9"/>
</svg>
