<svg width="120" height="118" viewBox="0 0 120 118" fill="none" xmlns="http://www.w3.org/2000/svg">
<path d="M52.65 52.6499C52.15 51.0999 51.7 49.5999 51.2 48.0499C50.7 46.4999 50.25 45.0499 49.85 43.5999C49.45 42.1999 49.1 40.8999 48.75 39.6999H48.65C48.2 41.8499 47.65 43.9999 46.95 46.1499C46.2 48.5499 45.45 51.0499 44.65 53.5499C43.95 56.0999 43.2 58.4499 42.45 60.5499H55.15C54.85 59.4949 54.45 58.2499 54 56.9449C53.55 55.5999 53.1 54.1499 52.65 52.6499V52.6499ZM98.75 0.499939H21.25C9.5 0.499939 0 9.99994 0 21.7499V96.2499C0 108 9.5 117.5 21.25 117.5H98.75C110.5 117.5 120 108 120 96.2499V21.7499C120 9.99994 110.5 0.499939 98.75 0.499939ZM73.5 83.1499H63.045C62.7 83.1999 62.35 82.9499 62.25 82.5999L58.15 70.6999H39.55L35.75 82.4499C35.65 82.8999 35.25 83.1999 34.8 83.1549H25.4C24.85 83.1549 24.7 82.8499 24.85 82.2549L40.95 35.8999C41.1 35.3999 41.25 34.8499 41.45 34.2499C41.65 33.1999 41.75 32.0999 41.75 30.9999C41.7 30.7499 41.9 30.4999 42.15 30.4499H55.1C55.5 30.4499 55.7 30.5999 55.75 30.8499L74 82.3499C74.15 82.8949 74 83.1499 73.5 83.1499V83.1499ZM90.5 82.3999C90.5 82.9499 90.305 83.1999 89.855 83.1999H80.05C79.55 83.1999 79.3 82.8949 79.3 82.3999V43.8999C79.3 43.3999 79.505 43.1999 79.955 43.1999H89.855C90.305 43.1999 90.5 43.4499 90.5 43.8999V82.3999V82.3999ZM89.455 37.2499C88.3 38.4499 86.6 39.0999 84.9 38.9999C83.25 39.0499 81.65 38.3999 80.445 37.2499C79.295 35.9999 78.695 34.3499 78.745 32.6499C78.695 30.9499 79.345 29.3499 80.54 28.1999C81.75 27.0499 83.35 26.4499 85 26.4499C86.955 26.4499 88.445 27.0499 89.55 28.1999C90.65 29.3999 91.25 30.9999 91.2 32.6499C91.25 34.3499 90.65 35.9999 89.455 37.2499V37.2499Z" fill="#FBFEF9"/>
</svg>
