<svg width="120" height="118" viewBox="0 0 120 118" fill="none" xmlns="http://www.w3.org/2000/svg">
<path d="M21.25 0.499939C9.5 0.499939 0 9.99994 0 21.7499V96.2499C0 108 9.5 117.5 21.25 117.5H98.75C110.5 117.5 120 108 120 96.2499V21.7499C120 9.99994 110.5 0.499939 98.75 0.499939H21.25ZM77.8 26.1499H87.95C88.2 26.0999 88.4 26.2999 88.45 26.4999V74.1999C88.45 75.0999 88.5 76.0999 88.55 77.1999C88.65 78.2499 88.7 79.2499 88.75 80.0999C88.75 80.4499 88.6 80.7499 88.25 80.8999C85.65 81.9999 82.9 82.7999 80.1 83.2999C77.6 83.7499 75 83.9999 72.4 83.9999C68.7 84.0499 65 83.2999 61.65 81.7499C58.5 80.2999 55.9 77.8999 54.1 74.9499C52.25 71.8999 51.35 68.0999 51.35 63.5499C51.3 59.8499 52.25 56.1999 54.1 52.9999C56 49.7499 58.75 47.0499 62.05 45.2499C65.55 43.2999 69.75 42.3499 74.7 42.3499C74.95 42.3499 75.3 42.3499 75.75 42.3999C76.2 42.4499 76.7 42.4499 77.3 42.4999V26.6999C77.3 26.3499 77.45 26.1499 77.8 26.1499ZM33.15 30.4499H42.9C43.2 30.3999 43.5 30.5999 43.55 30.9499C43.6 30.9999 43.6 31.0499 43.6 31.0999V82.3999C43.6 82.9499 43.35 83.1999 42.9 83.1999H33.1C32.65 83.1999 32.45 82.9499 32.45 82.3999V31.0999C32.45 30.6499 32.7 30.4499 33.15 30.4499V30.4499ZM74.3 51.6499C72.35 51.6499 70.4 52.0499 68.65 52.9499C66.95 53.7999 65.5 55.0499 64.4 56.6499C63.3 58.2499 62.75 60.3999 62.75 62.9999C62.7 64.7499 63 66.4999 63.6 68.1499C64.1 69.4999 64.85 70.6999 65.85 71.6999C66.8 72.5999 67.95 73.2999 69.25 73.6999C70.6 74.1499 72 74.3499 73.4 74.3499C74.15 74.3499 74.85 74.2999 75.5 74.2499C76.15 74.2999 76.75 74.1999 77.3 73.9999V51.9999C76.85 51.8999 76.4 51.7999 75.95 51.7499C75.4 51.6999 74.85 51.6499 74.3 51.6499V51.6499Z" fill="#FBFEF9"/>
</svg>
