<svg width="120" height="120" viewBox="0 0 120 120" fill="none" xmlns="http://www.w3.org/2000/svg">
<path d="M0 0H120V120H0V0ZM110.17 91.38C109.295 85.905 105.73 81.305 95.155 77.015C91.475 75.29 87.385 74.09 86.17 71.315C85.715 69.665 85.645 68.765 85.94 67.79C86.69 64.56 90.515 63.59 93.515 64.49C95.465 65.09 97.265 66.59 98.395 68.99C103.565 65.61 103.565 65.61 107.17 63.365C105.82 61.265 105.15 60.36 104.24 59.465C101.09 55.94 96.895 54.14 90.07 54.295L86.545 54.74C83.165 55.565 79.945 57.365 77.995 59.765C72.295 66.22 73.94 77.47 80.84 82.12C87.665 87.22 97.645 88.34 98.92 93.145C100.12 98.995 94.57 100.87 89.09 100.195C85.035 99.295 82.79 97.265 80.315 93.515L71.165 98.77C72.215 101.17 73.415 102.215 75.215 104.315C83.915 113.095 105.665 112.645 109.57 99.295C109.715 98.845 110.77 95.77 109.94 91.045L110.17 91.38V91.38ZM65.255 55.155H54.015C54.015 64.845 53.97 74.475 53.97 84.18C53.97 90.34 54.285 95.995 53.28 97.735C51.63 101.18 47.38 100.74 45.45 100.135C43.47 99.155 42.465 97.805 41.3 95.86C40.985 95.335 40.75 94.88 40.665 94.88L31.54 100.505C33.065 103.655 35.29 106.365 38.16 108.09C42.435 110.64 48.18 111.465 54.195 110.115C58.11 108.985 61.485 106.66 63.25 103.06C65.8 98.41 65.26 92.71 65.235 86.33C65.295 76.06 65.235 65.785 65.235 55.435L65.255 55.155V55.155Z" fill="#FBFEF9"/>
</svg>
