<svg width="120" height="116" viewBox="0 0 120 116" fill="none" xmlns="http://www.w3.org/2000/svg">
<path d="M7.62511 27.35C-3.00489 42.62 -1.68489 62.48 6.44011 78.695C6.62511 79.09 6.83011 79.465 7.03011 79.84C7.14511 80.1 7.27511 80.34 7.41511 80.59C7.48011 80.725 7.57011 80.87 7.65011 81C7.78011 81.26 7.92011 81.51 8.05511 81.76L8.84011 83.09C8.99011 83.335 9.12511 83.575 9.29011 83.82C9.57011 84.29 9.89011 84.755 10.1801 85.225C10.3101 85.425 10.4301 85.615 10.5751 85.81C11.0599 86.5733 11.5771 87.3157 12.1251 88.035C12.5151 88.57 12.9051 89.09 13.3251 89.61C13.4601 89.8 13.6151 89.99 13.7551 90.185L14.8551 91.53C14.9951 91.68 15.1301 91.865 15.2751 92.025C15.7651 92.615 16.2851 93.19 16.8051 93.775L16.8301 93.805C17.465 94.6059 18.1767 95.3427 18.9551 96.005C19.3551 96.42 19.7551 96.83 20.1801 97.23L20.6851 97.715C21.2401 98.24 21.8001 98.76 22.3851 99.26C22.3951 99.26 22.4001 99.27 22.4101 99.275L22.6951 99.525C23.2051 99.97 23.7201 100.415 24.2451 100.825L24.8701 101.35C25.2951 101.69 25.7401 102.015 26.1701 102.35L26.8551 102.875C27.3201 103.225 27.8151 103.57 28.2901 103.91C28.4651 104.035 28.6401 104.16 28.8201 104.275L28.9701 104.39L30.3701 105.315L30.9701 105.715C31.7101 106.185 32.4401 106.635 33.1701 107.075C33.3751 107.175 33.5901 107.295 33.7851 107.415C34.3251 107.725 34.8851 108.04 35.4301 108.33C35.7301 108.5 36.0401 108.645 36.3501 108.8C36.7251 109.01 37.1151 109.215 37.5201 109.425C37.6168 109.455 37.7106 109.493 37.8001 109.54C37.9651 109.615 38.1201 109.695 38.2801 109.775C38.8801 110.075 39.5051 110.365 40.1551 110.65C40.2751 110.7 40.4051 110.75 40.5351 110.82C41.2551 111.135 41.9801 111.435 42.7251 111.73C42.8951 111.78 43.0751 111.865 43.2501 111.93C43.9251 112.185 44.6201 112.445 45.3051 112.69L45.5551 112.78C46.3251 113.04 47.0801 113.29 47.8551 113.53C48.0351 113.58 48.2201 113.645 48.4101 113.695C49.2101 113.935 49.9801 114.22 50.7801 114.38C102.145 123.74 117.07 83.495 117.07 83.495C104.53 99.825 82.2801 104.13 61.2001 99.34C60.4201 99.16 59.6401 98.91 58.8501 98.68C57.8985 98.3975 56.9533 98.0941 56.0151 97.77L55.7051 97.65C55.0251 97.42 54.3701 97.165 53.7051 96.91C53.5242 96.8367 53.3408 96.77 53.1551 96.71C52.4151 96.41 51.7051 96.105 50.9901 95.79C50.8351 95.74 50.7051 95.67 50.5501 95.61C49.9444 95.3318 49.341 95.0485 48.7401 94.76C48.5601 94.6804 48.3833 94.5936 48.2101 94.5C47.7401 94.28 47.2701 94.025 46.8101 93.785C46.4942 93.6333 46.1825 93.4733 45.8751 93.305C45.3051 93.005 44.7401 92.68 44.1751 92.37C44.0051 92.25 43.8101 92.15 43.6151 92.04C42.8762 91.6019 42.1444 91.1518 41.4201 90.69C41.2191 90.5666 41.0224 90.4366 40.8301 90.3C40.2995 89.9713 39.7792 89.6261 39.2701 89.265C39.0951 89.15 38.9351 89.025 38.7551 88.9C38.2568 88.556 37.765 88.2026 37.2801 87.84C37.0701 87.67 36.8451 87.51 36.6201 87.34C36.1801 86.99 35.7351 86.665 35.2951 86.3L34.7051 85.825C34.1372 85.3699 33.5788 84.9031 33.0301 84.425C32.9734 84.3677 32.9115 84.3158 32.8451 84.27L31.1101 82.69L30.6101 82.22C30.2001 81.8 29.7801 81.4 29.3601 80.99L28.8701 80.49C28.3419 79.9644 27.8268 79.4259 27.3251 78.875L27.2501 78.795C26.7201 78.215 26.2001 77.62 25.6851 77.02C25.5501 76.87 25.4201 76.7 25.2851 76.535L24.1501 75.15C23.5736 74.4092 23.0068 73.6608 22.4501 72.905C10.7601 56.95 6.53011 34.92 15.8851 16.855L7.62511 27.35ZM40.6001 14.49C32.9001 25.545 33.3301 40.335 39.3301 52.03C40.3216 53.9978 41.4546 55.8911 42.7201 57.695C43.8701 59.345 45.1401 61.3 46.6851 62.635C47.2201 63.245 47.8001 63.835 48.4051 64.435L48.8551 64.885C49.4251 65.435 50.0151 65.97 50.6051 66.51L50.6851 66.575C51.3595 67.1637 52.0497 67.7339 52.7551 68.285C52.9251 68.4 53.0701 68.535 53.2351 68.65C53.9351 69.19 54.6451 69.71 55.3751 70.23L55.4501 70.275C55.7601 70.5 56.0901 70.705 56.4401 70.925C56.5801 71.015 56.7401 71.135 56.8901 71.225C57.4201 71.565 57.9401 71.885 58.4801 72.21C58.5651 72.245 58.6401 72.29 58.7201 72.325C59.1701 72.6 59.6601 72.865 60.1301 73.11C60.2951 73.21 60.4551 73.285 60.6301 73.38C60.9601 73.545 61.2901 73.72 61.6151 73.89L61.7751 73.96C62.4501 74.295 63.1401 74.605 63.8151 74.91C63.9851 74.98 64.1301 75.035 64.2751 75.105C64.8301 75.345 65.3951 75.575 65.9551 75.79C66.2051 75.875 66.4401 75.975 66.6751 76.05C67.1851 76.24 67.7251 76.415 68.2251 76.59L68.9251 76.815C69.6601 77.04 70.4001 77.335 71.1701 77.465C110.82 84.03 120 53.49 120 53.49C111.735 65.39 95.7401 71.055 78.6951 66.63C77.9406 66.4351 77.192 66.2184 76.4501 65.98C76.2101 65.91 76.0001 65.835 75.7701 65.765C75.2501 65.585 74.7151 65.415 74.2101 65.22L73.4901 64.95C72.9251 64.725 72.3551 64.515 71.8101 64.275C71.6401 64.2 71.4851 64.15 71.3551 64.075C70.6551 63.76 69.9501 63.45 69.2651 63.115L68.2351 62.58L67.6401 62.28C67.1918 62.0419 66.75 61.7918 66.3151 61.53C66.2085 61.4777 66.105 61.4192 66.0051 61.355C65.4751 61.025 64.9201 60.705 64.4151 60.365C64.2451 60.27 64.0901 60.155 63.9301 60.055L62.8901 59.375C62.1701 58.875 61.4651 58.335 60.7501 57.81C60.5901 57.665 60.4351 57.545 60.2801 57.415C52.7851 51.525 46.8751 43.465 44.0701 34.35C41.1201 24.865 41.7701 14.235 46.8701 5.6L40.6001 14.49ZM68.3301 4.865C63.7851 11.535 63.3501 19.815 66.4801 27.165C69.8051 34.98 76.6001 41.115 84.5201 44.015C84.8451 44.14 85.1601 44.245 85.5001 44.365L85.9401 44.5C86.4001 44.65 86.8651 44.815 87.3401 44.92C109.245 49.145 115.175 33.67 116.77 31.4C111.555 38.89 102.81 40.685 92.0801 38.075C91.2059 37.8565 90.3446 37.5894 89.5001 37.275C88.4485 36.9062 87.4171 36.4822 86.4101 36.005C84.504 35.083 82.6922 33.9778 81.0001 32.705C71.3901 25.42 65.4351 11.525 71.7051 0.205002" fill="#FBFEF9"/>
</svg>
