<svg width="120" height="118" viewBox="0 0 120 118" fill="none" xmlns="http://www.w3.org/2000/svg">
<path d="M49.25 41.0999C47.4 40.3499 45.4 40.0499 43.35 40.0999C42.05 40.0999 40.9 40.0999 39.95 40.1499C38.95 40.0999 38.25 40.1499 37.9 40.1999V56.9999C38.6 57.0499 39.25 57.0999 39.85 57.0999H42.5C44.45 57.0999 46.4 56.7999 48.25 56.1999C49.85 55.7499 51.25 54.7999 52.35 53.5499C53.4 52.2999 53.9 50.5999 53.9 48.3999C53.95 46.8499 53.55 45.2999 52.75 43.9499C51.9 42.6499 50.7 41.6499 49.25 41.0999V41.0999ZM98.75 0.499939H21.25C9.5 0.499939 0 9.99994 0 21.7499V96.2449C0 107.995 9.5 117.495 21.25 117.495H98.75C110.5 117.495 120 107.995 120 96.2449V21.7499C120 9.99994 110.5 0.499939 98.75 0.499939ZM61.795 58.7499C59.8 61.5499 57 63.6499 53.75 64.8499C50.35 66.0999 46.6 66.5499 42.5 66.5499C41.3 66.5499 40.5 66.5499 40 66.4999C39.5 66.4499 38.8 66.4499 37.85 66.4499V82.4949C37.9 82.8449 37.65 83.1499 37.3 83.1999H27.6C27.2 83.1999 27 82.9949 27 82.5449V31.0999C27 30.7499 27.15 30.5499 27.5 30.5499C28.35 30.5499 29.15 30.5499 30.3 30.4999C31.5 30.4499 32.75 30.4499 34.1 30.3999C35.45 30.3499 36.9 30.3499 38.45 30.2999C40 30.2499 41.5 30.2499 43 30.2499C47.1 30.2499 50.5 30.7499 53.3 31.7999C55.8 32.6499 58.1 34.0499 60 35.8999C61.6 37.4999 62.85 39.4499 63.65 41.5999C64.395 43.6999 64.795 45.8499 64.795 48.0999C64.8 52.3999 63.8 55.9499 61.795 58.7499V58.7499ZM97.25 78.1999C95.85 80.1999 93.895 81.7449 91.65 82.6549C89.2 83.6999 86.2 84.2449 82.595 84.2449C80.3 84.2449 78.045 84.0499 75.8 83.5999C74.05 83.2949 72.3 82.7499 70.7 81.9999C70.35 81.8049 70.095 81.4549 70.145 81.0549V72.3549C70.145 72.2099 70.2 72.0049 70.35 71.9049C70.495 71.8049 70.65 71.8549 70.8 71.9549C72.75 73.1049 74.8 73.9099 77 74.4049C78.895 74.9049 80.895 75.1549 82.9 75.1549C84.8 75.1549 86.15 74.8999 87.05 74.4499C87.85 74.0999 88.4 73.2499 88.4 72.3499C88.4 71.6449 88 70.9999 87.2 70.3499C86.4 69.7049 84.755 68.9549 82.305 67.9949C79.755 67.0949 77.41 65.8949 75.205 64.3999C73.655 63.2949 72.36 61.8499 71.4 60.1499C70.605 58.5499 70.205 56.7999 70.255 55.0449C70.255 52.8949 70.855 50.8449 71.96 48.9949C73.21 46.9949 75.055 45.3949 77.205 44.3949C79.55 43.1999 82.5 42.6499 86.05 42.6499C88.1 42.6499 90.2 42.7999 92.25 43.0999C93.75 43.2999 95.2 43.6999 96.55 44.2499C96.745 44.2999 96.95 44.4999 97.05 44.6999C97.1 44.8999 97.15 45.0999 97.15 45.2999V53.4499C97.15 53.6499 97.05 53.8499 96.9 53.9499C96.45 54.0499 96.2 54.0499 96 53.9499C94.5 53.1499 92.9 52.5999 91.2 52.2499C89.35 51.8499 87.5 51.5999 85.6 51.5999C84.6 51.5499 83.55 51.6999 82.595 51.9499C81.95 52.0999 81.395 52.4499 81.045 52.9499C80.795 53.3499 80.645 53.8499 80.645 54.2999C80.645 54.7499 80.845 55.1999 81.15 55.5999C81.6 56.1499 82.195 56.5999 82.85 56.9499C83.995 57.5499 85.2 58.0999 86.395 58.5999C89.1 59.4999 91.7 60.7499 94.1 62.2499C95.75 63.2949 97.1 64.6999 98.045 66.3999C98.845 67.9899 99.245 69.7499 99.195 71.5449C99.25 73.8999 98.55 76.2449 97.25 78.1999V78.1999Z" fill="#FBFEF9"/>
</svg>
