<svg width="120" height="108" viewBox="0 0 120 108" fill="none" xmlns="http://www.w3.org/2000/svg">
<path d="M71.15 54.02C71.15 56.9843 69.9728 59.8272 67.8772 61.9237C65.7816 64.0202 62.9393 65.1987 59.975 65.2C57.0099 65.2 54.1662 64.0221 52.0695 61.9255C49.9729 59.8288 48.795 56.9851 48.795 54.02C48.795 51.0558 49.9722 48.2128 52.0678 46.1163C54.1634 44.0198 57.0057 42.8413 59.97 42.84C62.9351 42.84 65.7788 44.0179 67.8755 46.1146C69.9721 48.2112 71.15 51.0549 71.15 54.02V54.02ZM84.39 0.570007C77.66 0.570007 68.855 5.37001 59.95 13.68C51.05 5.41501 42.24 0.670007 35.515 0.670007C33.465 0.670007 31.6 1.13501 29.985 2.06001C23.11 6.02501 21.57 18.38 25.12 33.885C9.9 38.585 0 46.1 0 54.02C0 61.97 9.95 69.505 25.215 74.17C21.695 89.735 23.265 102.11 30.155 106.07C31.755 107.005 33.605 107.445 35.665 107.445C42.39 107.445 51.2 102.645 60.105 94.325C69.005 102.595 77.815 107.34 84.54 107.34C86.59 107.34 88.455 106.89 90.07 105.965C96.94 102.005 98.485 89.65 94.935 74.14C110.1 69.48 120 61.95 120 54.02C120 46.07 110.05 38.535 94.785 33.86C98.305 18.31 96.735 5.92501 89.845 1.96001C88.255 1.04001 86.405 0.575007 84.385 0.570007H84.39ZM84.365 6.02001V6.05001C85.49 6.05001 86.395 6.27001 87.155 6.68501C90.485 8.59501 91.93 15.86 90.805 25.205C90.535 27.505 90.095 29.93 89.555 32.405C84.755 31.225 79.525 30.32 74.02 29.735C70.72 25.21 67.295 21.1 63.845 17.5C71.805 10.1 79.28 6.04001 84.37 6.02501L84.365 6.02001ZM35.515 6.12001C40.575 6.12001 48.085 10.16 56.065 17.52C52.635 21.12 49.215 25.205 45.965 29.73C40.43 30.315 35.195 31.22 30.4 32.42C29.84 29.97 29.425 27.6 29.13 25.32C27.98 15.98 29.4 8.72001 32.7 6.78501C33.65 6.33501 34.7 6.15001 35.515 6.12501V6.12001ZM59.925 21.37C62.2 23.71 64.475 26.33 66.725 29.19C64.525 29.09 62.275 29.02 60 29.02C57.7 29.02 55.425 29.07 53.2 29.19C55.4 26.33 57.675 23.71 59.925 21.365V21.37ZM60 34.5C63.7 34.5 67.385 34.67 71.01 34.965C73.04 37.875 75.02 40.98 76.925 44.265C78.785 47.465 80.475 50.715 82.015 53.995C80.475 57.27 78.785 60.545 76.95 63.745C75.05 67.045 73.085 70.185 71.05 73.095C67.41 73.41 63.72 73.585 60 73.585C56.3 73.585 52.615 73.41 48.99 73.12C46.96 70.21 44.98 67.1 43.075 63.82C41.215 60.62 39.525 57.37 37.985 54.09C39.5 50.805 41.215 47.525 43.05 44.32C44.95 41.02 46.915 37.89 48.95 34.98C52.59 34.66 56.28 34.49 60 34.49V34.5ZM41.825 35.77C40.625 37.655 39.425 39.585 38.305 41.57C37.18 43.52 36.13 45.48 35.13 47.44C33.805 44.16 32.68 40.89 31.75 37.705C34.95 36.955 38.325 36.29 41.825 35.775V35.77ZM78.125 35.77C81.6 36.285 84.95 36.92 88.155 37.705C87.255 40.865 86.13 44.115 84.855 47.37C83.855 45.42 82.805 43.455 81.655 41.5C80.53 39.54 79.33 37.63 78.13 35.77H78.125ZM93.44 39.145C95.86 39.895 98.16 40.73 100.315 41.635C108.975 45.335 114.575 50.175 114.575 54.015C114.55 57.855 108.95 62.715 100.29 66.39C98.19 67.29 95.89 68.1 93.515 68.855C92.115 64.065 90.285 59.075 88.015 53.955C90.265 48.87 92.065 43.905 93.44 39.135V39.145ZM26.465 39.165C27.855 43.965 29.69 48.95 31.965 54.065C29.715 59.15 27.905 64.115 26.535 68.885C24.115 68.135 21.815 67.295 19.685 66.385C11.025 62.7 5.425 57.855 5.425 54.015C5.425 50.175 11.025 45.305 19.685 41.635C21.785 40.735 24.085 39.925 26.465 39.165V39.165ZM84.855 60.565C86.18 63.85 87.305 67.125 88.235 70.305C85.035 71.09 81.655 71.755 78.155 72.255C79.355 70.38 80.555 68.445 81.68 66.465C82.805 64.515 83.855 62.525 84.86 60.565H84.855ZM35.13 60.665C36.13 62.625 37.18 64.58 38.33 66.54C39.48 68.49 40.655 70.4 41.855 72.255C38.38 71.745 35.03 71.105 31.825 70.325C32.725 67.175 33.855 63.915 35.125 60.66L35.13 60.665ZM89.6 75.6C90.16 78.065 90.6 80.44 90.87 82.715C92.02 92.055 90.6 99.315 87.3 101.255C86.565 101.705 85.61 101.895 84.485 101.895C79.425 101.895 71.915 97.86 63.935 90.495C67.365 86.895 70.785 82.815 74.035 78.295C79.57 77.705 84.805 76.795 89.6 75.595V75.6ZM30.45 75.65C35.25 76.82 40.48 77.725 45.985 78.31C49.285 82.835 52.71 86.945 56.16 90.54C48.185 97.955 40.7 102.015 35.61 102.015C34.51 101.99 33.58 101.765 32.845 101.355C29.515 99.455 28.07 92.185 29.195 82.84C29.465 80.54 29.905 78.12 30.445 75.65H30.45ZM53.25 78.85C55.45 78.95 57.7 79.02 59.975 79.02C62.275 79.02 64.55 78.97 66.775 78.85C64.575 81.71 62.3 84.325 60.05 86.675C57.775 84.325 55.5 81.71 53.25 78.85Z" fill="#FBFEF9"/>
</svg>
