<svg width="120" height="120" viewBox="0 0 120 120" fill="none" xmlns="http://www.w3.org/2000/svg">
<path d="M60 0C93.135 0 120 26.865 120 60C120 93.135 93.135 120 60 120C26.865 120 0 93.135 0 60C0 26.865 26.865 0 60 0ZM48.075 79.99C48.95 83.215 48.855 86.23 47.955 88.95L47.63 89.85C47.51 90.155 47.37 90.45 47.24 90.73C46.54 92.18 45.61 93.53 44.465 94.78C40.975 98.575 36.105 100.015 34.015 98.805C31.765 97.495 32.885 92.13 36.935 87.855C41.29 83.265 47.535 80.31 47.535 80.31V80.295L48.075 79.99V79.99ZM97.63 25.685C94.92 15.02 77.245 11.515 60.52 17.46C50.575 20.995 39.8 26.55 32.055 33.795C22.84 42.4 21.375 49.9 21.98 53.035C24.115 64.09 39.265 71.32 45.495 76.685V76.715C43.66 77.615 30.215 84.36 27.065 91.34C23.69 98.69 27.59 103.945 30.14 104.615C38.015 106.795 46.115 102.815 50.465 96.37C54.665 90.065 54.295 81.965 52.485 77.99C54.965 77.315 57.885 77.015 61.635 77.47C72.14 78.67 74.24 85.27 73.785 87.97C73.335 90.665 71.17 92.24 70.415 92.69C69.665 93.145 69.44 93.29 69.51 93.595C69.585 94.045 69.965 94.045 70.56 93.97C71.385 93.82 76.04 91.72 76.265 86.615C76.49 80.165 70.335 72.97 59.39 73.115C54.89 73.195 52.035 73.57 50.015 74.395C49.865 74.17 49.71 74.02 49.49 73.87C42.74 66.595 30.215 61.495 30.74 51.82C30.89 48.295 32.165 39 54.74 27.75C73.265 18.52 88.045 21.075 90.595 26.7C94.26 34.72 82.715 49.65 63.44 51.82C56.09 52.645 52.265 49.8 51.285 48.745C50.24 47.62 50.09 47.545 49.715 47.775C49.115 48.075 49.49 49.05 49.715 49.65C50.315 51.15 52.64 53.775 56.695 55.125C60.215 56.25 68.845 56.92 79.195 52.875C90.815 48.38 99.89 35.85 97.265 25.35L97.63 25.685V25.685Z" fill="#FBFEF9"/>
</svg>
